<?xml version="1.0" encoding="UTF-8"?>
<!DOCTYPE svg PUBLIC "-//W3C//DTD SVG 1.1//EN" "http://www.w3.org/Graphics/SVG/1.1/DTD/svg11.dtd">
<!-- Creator: CorelDRAW 2017 -->
<svg xmlns="http://www.w3.org/2000/svg" xml:space="preserve" width="63.6182mm" height="66.5764mm" version="1.1" style="shape-rendering:geometricPrecision; text-rendering:geometricPrecision; image-rendering:optimizeQuality; fill-rule:evenodd; clip-rule:evenodd"
viewBox="0 0 2137.16 2236.53"
 xmlns:xlink="http://www.w3.org/1999/xlink">
 <defs>
  <style type="text/css">
   <![CDATA[
    .fil0 {fill:#B71C1C}
    .fil1 {fill:#FEFEFE;fill-rule:nonzero}
   ]]>
  </style>
 </defs>
 <g id="Layer_x0020_1">
  <metadata id="CorelCorpID_0Corel-Layer"/>
  <path class="fil0" d="M116.75 660.88c0.27,0 0.81,-0.26 0.81,0.01 0,0.11 0.34,0 0.33,0 -0.07,0 -1.56,-0 -1.14,-0.01zm-2.71 593.2l0 -0.01c0.61,0.29 1.8,0.21 1.81,0.9 0,0.41 1.13,0.56 1.1,0.55 -0.06,-0.02 -0.76,-0.31 -2.91,-1.43zm0 -0.01c-10.89,-2.61 -4.49,-1.6 -10.83,-0.02 -2.81,-6.71 4.53,-5.4 -5.42,-5.4 0,-5.9 0.59,-0.31 -2.71,-1.09l-16.25 -12.99c-3.36,-2.44 -7.01,-5.42 -10.37,-7.77 -2.43,-1.7 -2.45,-1.56 -4.76,-3.16 -2.15,-1.48 -4.91,-3.55 -6.54,-4.79 -3.52,-5.26 -2.86,-4.08 -7.44,-8.56l-4.06 -3.84c-2.79,-2.76 -2.2,-2.47 -4.75,-4.94 -0.47,-0.6 -1.22,-2.24 -1.47,-1.74 -0.25,0.49 -1.11,-1.32 -1.46,-1.65l-5.92 -5.24c-0.4,-0.43 -0.95,-0.99 -1.33,-1.45 -5.4,-6.49 -4.19,-10.89 -11.49,-13.22 -4.16,-10.22 0.89,-4.79 -8.13,-10.82 -9.01,6.04 -3.97,0.61 -8.13,10.82 -6.65,0.04 0.33,-0.91 -2.71,2.72 0.21,9.58 2.03,11.5 2.71,20.58 3.97,5.09 1.05,1.8 4.43,7.87 1.92,3.45 0.81,1.91 2.9,5.05 3.63,5.44 0.95,1.5 3.5,4.43 2.29,11.19 3.82,11.92 10.83,15.72 2.39,9.81 1.08,5.55 8.13,12.99 3.94,2.62 0.47,-0.88 2.71,6.49 5.99,2.62 -0.73,1.14 5.42,0.03 -0.17,0.4 -1.14,6.23 -2.71,8.11 -17.04,0 -9.06,-0.21 -13.54,4.32 4.82,2.19 4.57,1.44 8.13,1.11 4.16,10.22 -0.89,4.78 8.13,10.82 2.7,2.44 4.34,3.85 8.13,7.22l8.13 6.32c8.34,3.77 8.2,4.75 16.25,10.83 7.47,1.1 6.5,2.8 13.54,8.13 2.56,0.38 35.17,15.06 40.63,17.88 9,3.93 11.56,7.2 21.67,3.82 5.41,7.3 -1.11,2.32 7.15,6.24 6.3,2.98 1.36,1.23 9.1,1.87l9.61 3.88c4.01,1.19 7.46,1.87 12.06,2.88 53.46,17.04 160.61,17.02 213.98,0 2.88,-0.63 7.21,-1.51 9.76,-2.36 0.84,-0.28 3.31,-1.19 4.06,-1.52 3.69,-1.6 3.14,-1.5 5.14,-2.89 7.43,-0.62 3.04,1.24 9.1,-1.87 11.03,-5.68 16.14,-4.52 28.82,-10.05 8.97,-4.65 30.45,-16.78 37.92,-17.88 7.04,-5.33 6.08,-7.02 13.54,-8.13 5.04,-5.64 8.28,-8.04 13.54,-10.83l8.13 -6.32c3.79,-3.37 5.43,-4.77 8.13,-7.22 5.11,-3.42 9.52,-8.05 13.54,-11.93l18.96 -18.96c4.54,-5.15 5.09,-6.34 9.12,-11.27 4.52,-5.54 4.78,-4.16 7.13,-10.39 6.2,-5.98 9.53,-12.05 13.54,-17.46 15.98,-19.68 26.15,-38.5 37.92,-59.81l20.68 -44.37c0.21,-0.41 0.64,-1.26 0.98,-1.87 -0.32,15.45 -5.42,28.99 -5.42,46.24 -2.47,10.23 -4.75,53.47 -8.13,58.32l0 11.91 0 15.72c-1.94,4.37 -2.15,4.86 -2.71,11.37l0 5.42 0 5.42 0 12.19 0 9.47c-3.52,2.14 -2.71,-4.39 -2.71,7.22l0 14.45 0 8.13 0 8.13 0 7.44 0 0.7 0 12.17 0 10.84 0 11.29 0 20.27 0 15.82 0 17.16c0.21,9.26 1.36,9.9 2.71,18.05l0 12.19c0,25.69 12.98,23.72 23.04,47.2 7.13,-1.66 13.94,-4.84 19.52,-7.8 -6.33,-23.23 -20.89,-19.79 -20.89,-39.4l0 -12.18c6.33,3.35 7.05,4.65 16.25,5.42 1.46,-5.53 -0.87,-2.48 2.71,-5.43 -1.35,-8.15 -2.5,-8.79 -2.71,-18.05l0 -17.16c0.17,-0.4 1.14,-6.23 2.71,-8.11 12.47,2.91 7.39,5.42 24.38,5.42 1.67,-7.18 2.26,-7.7 5.42,-13.13l0 -20.27 0 -11.29c2.32,-5.27 2.01,-3.2 2.7,-10.84 0.9,-6.2 0.82,-6.35 2.71,-12.17l0 -0.7 2.71 0 0 0.7 0 13.51c0,10.67 0.44,5.57 2.7,9.49l0 11.29c0,2.52 -0.36,10.4 -0.11,12.45 1.07,8.8 -1.09,4.33 2.83,6.96l0 14.44c1.41,4.83 0.61,3.94 2.71,7.68 11.28,-0.25 13.82,-1.45 18.96,-7.68 8.72,-6.78 6.19,-4.81 10.83,-14.44 2.96,-4.56 4.11,-12.92 5.42,-19.41 8.05,-3.24 6.25,0.61 18.96,0.9l0 -12.19 0 -9.49 0 -13.51 0 -0.7 0 -7.44 0 -8.13c2.77,-2.99 2.71,4.74 2.71,-8.13l0 -14.45 0 -7.22 0 -9.47c3.28,-8.4 1.94,-2.45 2.71,-12.19l0 -5.42 0 -5.42c0.56,-6.51 0.77,-7 2.71,-11.37l0 -15.72 0 -11.91c2.91,-4.19 7.39,-49.79 8.12,-58.32 0,-11.89 1.77,-21.88 3.19,-34.7 0.74,-6.63 0.86,-26.11 4.93,-31.47l0 -17.97 0 -2.92c3.23,-10.3 2.71,-18.65 2.71,-32.3 9.32,3.13 0.42,-2.54 10.24,6.54 4.3,3.97 5.2,5.41 8.71,9.7 4.77,2.53 3.67,2.85 7.34,6.1 6.54,5.79 1.32,3.26 8.91,6.38 3.56,6.68 2.61,4.74 8.13,11.58 11.27,7.26 24.46,26.45 46.45,43.28 4.13,3.16 6.02,5.33 9.78,9.33 7.56,8.04 12.51,12.19 19.62,19.87l8.13 9.1c3.94,2.09 9.81,7.82 15.1,11.95 7.62,5.94 8.79,8.49 16.72,16.17 9.62,9.3 21.45,20.17 33.18,29.19 7.43,10 9.51,9.41 18.96,17.46 7.62,6.98 13.75,17.21 24.38,20.05l5.42 5.42 5.42 5.42c7.06,10.55 4.92,8.72 16.25,13 4.47,7.54 6.67,8.95 13.54,15.88 5.23,4.22 14.35,11.36 18.96,14.45 4.75,7.1 1.37,5.6 10.83,8.13l8.13 8.13 5.42 6.77c6.38,3.5 10.46,8.31 16.25,12.19 0.47,0.43 1.18,0.5 1.41,1.29 0.23,0.8 1.17,1.03 1.48,1.23 3.08,1.97 2.2,1.4 5.23,2.9l5.42 6.77 10.83 9.47c4.15,2.77 7.88,6.7 11.93,9.73 6.6,4.94 8.64,7.95 15.16,12.37 6.52,4.94 10.18,7.84 16.25,15.82 7.74,1.14 6.03,1.8 10.84,8.13 8.3,3.75 5.45,2.69 11.41,7.87 7.16,6.23 5.55,4.47 12.97,8.39 4.55,6.79 2.19,5.06 10.84,9.48 6.21,6.28 9.29,6.64 16.25,13.54 5.78,5.25 6.72,3.9 13.54,11.11 10.81,4.71 5.01,6.21 16.25,9.21 4.5,6.73 2.41,5.02 10.83,9.74l5.42 6.5c11.21,1.65 4.03,5.52 16.25,0 2.24,-7.38 -1.23,-3.88 2.71,-6.5 -5.78,-11.05 0.81,-3.58 -10.83,-9.74 -2.54,-3.45 -1.11,-2.59 -5.35,-5.6 -0.59,-0.42 -2.6,-1.58 -3.23,-1.9 -4.76,-2.44 -0.67,-0.5 -4.97,-1.72 -0.47,-0.62 -1.21,-2.33 -1.46,-1.84 -1.16,2.22 -1.32,-8.96 -14.79,-9.27 -2.79,-5.5 -0.87,-4.04 -5.98,-9.1 -6.02,-5.97 -3.52,-3.04 -7.57,-4.44 -0.47,-0.61 -1.24,-2.27 -1.43,-1.82 -0.18,0.44 -1.05,-1.44 -1.29,-1.86 -1.56,-2.85 -0.61,-0.19 -2.7,-5.79l5.42 1.62c9.76,4.26 15.82,8.91 29.79,9.22 -1.38,-2.06 -1.69,-3.73 -4.66,-6.25 -7.5,-6.39 -0.42,-1.35 -6.17,-2.97 -3.54,-7.33 -13.58,-17.68 -21.67,-17.88 -3.46,-8.25 1.44,-2.68 -3.46,-6.89 -5.34,-4.59 1.82,-1.94 -4.67,-1.24 -0.35,-0.79 -1.04,-2.71 -1.31,-2.22l-5.69 -7.13c-3.06,-3.19 -2.95,-1.64 -6.54,-6.47 3.43,-11.61 3.95,-6.36 10.99,-11.3 3.28,-2.3 3.85,-1.11 4.87,-5.42 2.75,-11.62 -1.2,-4.46 -2.32,-5.38 -0.17,-1.09 -0.26,-3.9 -0.52,-3.28 -0.23,0.54 -0.42,-2.28 -0.74,-2.76 -3.48,-5.25 0.15,-1.88 -4.16,-3.43 -2.38,-5.75 2.87,-2.05 -5.42,-6.77l-5.42 -5.42 -10.84 -12.19c-1.58,-3.9 -0.7,-3.45 -2.71,-6.77l5.42 1.62c6.02,2.87 9.7,7.14 16.25,11.91 5.1,2.7 4.71,4.15 11.31,8.12 6.42,3.86 8.95,3.34 15.78,9.5 7.85,7.93 4.71,9.17 18.96,9.48 0.85,-10.01 -1.01,-3.95 2.71,-9.48 -0.27,-3.34 -0.49,-12.39 -5.42,-17.62 0,-13.76 0.72,-5.96 -2.7,-5.42 0,-16.05 0.51,-2.6 -2.71,-6.5 -0.9,-6.56 -0.35,-5.6 -2.71,-9.74 -2.28,-4.6 -2.35,-4.74 -5.42,-8.13 3.28,-12.28 0.69,-4.48 10.84,-10.83 0,-10.95 0.51,-1.5 -2.71,-3.62l-2.61 -3.56c-2.54,-2.82 -1.35,-1.72 -4.31,-4.45 -3.96,-3.64 -5.44,-4.76 -9.34,-7.87l-16.25 -13 -5.42 -5.42 -5.42 -5.42 -24.38 -20.05 -8.71 -8.89c-5.53,-5.4 -4.13,-5.08 -10.25,-8.56 -0.47,-0.46 -1.27,-1.78 -1.48,-1.31l-64.38 -54.6c-7.29,-3.67 3.68,-1.2 -4.57,-1.4 -5.97,-9.49 1.62,-0.67 -4.42,-5.87 -7.94,-6.85 -0.42,-1.68 -6.41,-3.23 -8.24,-10.95 -35.5,-29.27 -45.67,-36.88 -14.85,-11.11 -37.15,-34.66 -46.42,-35.59 -4.11,-9.63 -0.12,-4.16 -8.13,-11.58 -2,-2.21 -4.69,-5.61 -7.34,-7.95 -7.77,-6.88 -2.37,-4.36 -8.91,-4.53l-10.12 -13.82c-6.58,-6.87 -28.05,-30.73 -35.93,-33.7 -4.56,-8.8 -9.75,-12.32 -16.92,-19.51 -3.59,-3.6 -5.72,-6.46 -9.33,-9.82 -8.97,-8.34 -1.75,-6.61 -11.66,-4.4 -4.88,-11.99 -5.47,-10.79 -17.78,-20.13 -9.02,-6.85 -15.38,-10.07 -17.43,-17.77l5.42 -1.17c6.87,-13.6 -1.46,-4.82 8.97,-11.65 3.36,-2.2 9,-4.22 12.62,-6.23 8.75,-4.88 16.21,-10.59 21.75,-18.88 10.99,-5.45 11.76,-6.43 19.62,-15.65 4,-4.69 4.28,-6.11 8.44,-10.15 5.99,-5.83 4.96,-2.76 9.87,-8.96 6.64,-2.32 36.58,-29.88 41.31,-34.59 12.72,-12.65 25.6,-25.26 37.24,-37.84 8.35,-6.53 7.66,-3.2 13.54,-11.99l24.38 -24.38c3.9,-2.62 7.28,-4.56 11.33,-7.78 4.67,-3.72 5.19,-5.76 10.34,-8.49l18.96 -21.12c11.57,-8.18 8.87,-11.71 18.84,-19.64 6.75,-5.36 16.05,-9.7 21.79,-14.62 5.48,-2.73 7.07,-3.85 11.44,-6.45 5.78,-3.45 6.72,-3.29 12.37,-6.27 13.04,-6.87 3.78,-5.35 8.69,-23.09 6.9,-9.85 9.1,-14.41 9.94,-27.41 0.6,-9.36 -6.25,-0.68 4.5,-9.91 6.81,-5.85 4.65,-1.72 9.94,-9.62l5.27 -2.94c-0.77,-10.78 -2.17,-5.5 -2.56,-16.03l0 -8.11c2.58,-5.39 3.89,-9.69 5.42,-16.25l18.96 -20.32c9.18,-4.7 18.91,-9.43 24.38,-17.6 -10.89,-5.22 -18.42,-3.72 -27.72,2.07 -11.35,7.06 -13.41,6.15 -21.03,15.53 -7.79,1.82 -17.27,8.89 -24.95,14.33l-7.56 5.99 -22.92 15c-0.3,0.25 -0.97,0.84 -1.45,1.26 -13.32,6.6 -2.86,-0.63 -8.13,8.11 -5.06,-0.31 -0.64,-1.62 -6.95,1.31 -2.87,1.33 -4.61,3.21 -7.77,5.55 -6.71,4.94 -10.7,6.15 -15.07,12.11 -8.75,2.34 -1.97,-0.07 -9.28,4.51 -9.46,5.94 7.84,-5.21 -3.26,2.3l-57.88 40.13c-8.79,2.92 -16.54,8.96 -24.96,14.85l-23.79 20.96c-4.19,1.3 -0.24,-0.48 -4.91,2.02 -6.77,3.62 -36.57,25.41 -41.14,32.23 -4.88,2.01 -9.27,4.44 -13.59,7.42l-13.5 13.7c-5.17,0.13 -0.42,-1.24 -6.52,1.74 -6.2,3.03 -1.86,0.91 -6.32,4.24 -4.74,3.53 -8.36,5.96 -11.54,10.29 -7.92,4.19 -27.78,17.93 -32.5,24.38 -9.72,5.14 -8.2,1.8 -13.54,11.99 -10.19,0.58 -0.4,-2.92 -10.32,4.96l-24.28 19.31c-4.79,3.96 -0.09,1.5 -6.04,4.38 0.32,-13.13 1.57,-7.24 2.71,-17.16 0.63,-9.49 -0.45,-6.26 2.71,-12.63l0 -10.84c2.84,-5.92 3.69,-16.94 5.42,-24.38 0,-10.24 0.03,-13.14 2.7,-20.31l0 -15.96c3.71,-9.16 2.71,-22.43 2.71,-35.36 1.7,-9.24 5.17,-26.16 5.42,-35.81 3.94,-9.77 5.42,-32.36 5.42,-46.94 -0.87,-10.41 -1.74,-14.28 -8.13,-18.96l0 -0.61 0 -7.51 0 -16.25c1.48,-6.38 2.52,-8 2.7,-16.25l-16.25 -13.54 0 29.8 0 16.25 0 7.51 -8.13 -0.94 0 -8.69 0 -12.11c3.06,-17.82 2.71,-32.24 2.71,-53.48 -10.36,-2.75 -1.33,-0.37 -8.12,-0.59l-6.29 -12.21c-0.3,-0.49 -0.69,-1.21 -0.99,-1.66 -3.52,-5.28 -1.15,-1.74 -3.55,-4.5l0 18.37c3.06,8.56 2.71,8.16 2.71,19.55l-13.54 0c0,-18.42 2.73,-21.25 -16.25,-21.67 0,10.56 2.71,11.46 -2.71,12.93l-2.71 -15.62c-8.64,-6.69 -6.36,-20.18 -24.38,-21.68l-2.7 13.53c-2.08,-6.78 -2.55,-10.26 -5.42,-16.24 8.76,-2.34 5.25,-1.13 10.84,-6.78 8.93,-4.57 23.96,-15.76 29.79,-21.67 7.52,-3.85 5.81,-3.61 12.1,-8.16 4.86,-3.51 1.51,-0.15 6.28,-4.76 4.74,-4.58 1.97,-0.96 6,-7.38 4.9,0.89 0.92,2.63 5.42,-0.6 7.93,-5.17 12.39,-9.81 19.32,-15.31 6.54,-5.19 14.41,-10.34 18.6,-16.6 9.51,-2.54 4.73,-1.51 11.78,-7.18 4.17,-3.36 6.56,-5.21 10.51,-8.45 8.19,-6.71 15.39,-11.14 21.05,-19.59 8.67,-5.8 12.33,-11.09 19.63,-18.3 5.62,-5.55 17.55,-14.97 21,-19.32 13.88,-10.29 30.24,-20.16 45.18,-28.27 9.89,-5.37 42.32,-22.43 49.62,-23.51 4.21,-12.43 0.4,-2.46 0,-18.05l0 -6.32 10.84 -24.36c4.17,-1.82 1.68,-0.02 2.71,-4.54 8.81,-12.57 13.34,-24.2 2.71,-38.37 6.34,-2.21 15.55,-8.15 21.21,-11.77 8.65,-5.55 12.07,-10.57 19.42,-15.76 -2,-7.56 0.41,-2.17 -2.7,-7.23 -0.91,-12.44 -2.71,-19.24 -2.71,-35.57 0.36,-0.63 0.71,-2.39 0.84,-2l7.28 -18.4c3.27,-4.97 5.29,-9.99 8.13,-15.36 3.61,-2.19 2.71,3.11 2.71,-2.72 30.94,-40.67 53.68,-28.92 65.01,-46.49 0.46,-1.89 7.87,-6.74 -7.91,-7.76 -17.3,-1.13 -12.63,4.2 -16.47,-5.32 -10.46,0.87 -16.06,4.83 -21.67,13.08 -7.22,-1.02 -9.34,1.56 -19.8,7.97l-20.31 11.93c-6.88,4.14 -11.5,7.03 -18.62,11.19 -4.66,2.73 -5.5,2.64 -10.19,5.88 -6.04,4.17 -1.35,0.42 -4.95,3.91 -5.33,5.17 1.14,-3.64 -4.68,5.61 -0.61,-0.06 -1.61,-0.9 -1.83,-0.22 -0.21,0.66 -1.49,-0.05 -1.77,0.06 -4.19,1.65 -2.03,0.62 -4.53,2.88 -6.47,1.73 -20.89,11.46 -27.09,15.36l-29.79 20.39 -9.34 4.08c-0.52,0.27 -1.2,0.67 -1.72,0.95 -0.51,0.27 -1.2,0.67 -1.7,0.94 -10.89,5.99 -38.37,19.99 -44.12,29.6 -11.3,0.84 -20.34,9.73 -29.79,15.6l-25.11 15.35c-3.34,2.45 -2.31,1.46 -4.68,3.81l-38.75 20.8c-0.52,0.29 -1.22,0.67 -1.74,0.96 -9.31,5.2 -21.71,10.49 -27.23,16.61 -4.58,1.53 -7.68,3.67 -13.54,4.54 -7.88,5.59 -12.08,8.44 -19.9,12.61 -3.69,1.96 -5.23,2.48 -8.81,4.7 -3.96,2.46 -6.42,4.63 -9.2,7.05 -5.17,2.95 -3.29,1.65 -5.42,6.32 -6.65,0.69 -7.97,2.18 -14.5,6.06 -5.99,3.55 -1.59,-0.18 -6.62,4.54 -4.75,4.45 -2,1.13 -5.96,7.44 -8.99,-2 -0.85,-2.97 -12.78,3.29 -4.55,2.38 -8.04,4.49 -12.12,7.12 -4.4,2.83 -0.24,0.46 -5.03,3.37l-54.62 29.4c-0.5,0.3 -1.18,0.7 -1.68,1l-8.19 5.14c-0.41,0.29 -1.23,0.97 -1.55,1.22 -0.33,0.24 -1.06,0.79 -1.54,1.24 -7.7,1.38 -8.42,2.32 -15.4,6.11 -11.59,6.29 -36.55,19.82 -46.9,20.68l-13.54 -26.79 -13.54 -21.97c0.6,7.27 3.01,16.64 5.42,21.97 1.81,7.58 6.79,24.56 10.84,32.21 -0.07,0.05 -5.32,5.32 -5.42,5.42 -0.38,-0.47 -0.89,-1.86 -1.01,-1.49 -1.29,3.88 -1.6,-2.57 -1.88,-3.22 -3.75,-8.74 1.58,6.51 -2.12,-6.21 -1.11,-3.82 -2.69,-10.5 -3.11,-13.45 -13.28,-43.49 -5.78,-34.02 -21.67,-29.78l-8.13 -16.25 0 -8.13 -2.71 0c0,14.32 0.02,4.04 2.71,8.13 0.23,10.37 2.94,15.24 4.89,22.69 2.68,10.23 4.31,13.18 5.94,23.34 2.79,5.95 0.84,0.34 2.71,8.14l-15.05 -7.45c-0.19,-0.11 -0.76,-0.54 -1.21,-0.68 -0.69,-11.64 1.39,-5.51 -2.7,-13.23l-2.71 -10.52c-2.96,-4.83 2.19,-0.97 -6.04,-5.25 -5.02,-2.61 -5.09,-2.3 -10.21,-3.49l0 8.74 0 7.51c-3.38,-2.05 -2.71,3.01 -2.71,-3.32l-13.93 -25.86c-0.27,-0.35 -0.94,-1.12 -1.16,-1.4 -0.21,-0.27 -0.74,-0.96 -1.17,-1.38 -7.2,-12.13 -6.15,-12.73 -18.96,-19.5 0.23,10.29 1.98,9.99 2.7,19.5 -3.32,11.16 -3.28,1.21 -5.69,-4.87 -1.63,-4.11 -0.77,-3.88 -3.34,-8.13 -3,-4.96 -2.03,-3.21 -4.51,-4.7 -1.26,-7.13 -0.45,-5.25 -2.56,-10.14l-5.56 -7.9c-5.09,-9.62 0.48,-7.81 -10.84,-10.83l0 10.83c0,8.39 0.74,12.38 2.71,18.05 0.35,11.47 6.38,35.88 10.83,46.35l5.42 19.56c0.28,7.69 13.42,53.69 16.25,59.6 -3.02,11.31 -2.99,7.22 -26.7,16.64 -5.25,2.09 -8.74,3.33 -15.53,6.02l-14.65 9.26c-15.06,-3.7 -0.96,-1.25 -13.54,0.6 -10.16,5.1 -12.07,6.2 -22.7,9.81 -5.29,1.79 -6.17,1.86 -9.9,3.54l-10.75 6.95c-9.97,-1.26 -23.15,5 -33.53,8.46 -9.9,3.3 -24.23,5.8 -31.48,13.21 -13.65,-1.72 -71.12,27.09 -89.51,36.4 -12.2,6.18 -5.7,-0.4 -10.71,10.99 -9.84,-2.19 -27.83,12.89 -32.5,24.38 -7.62,-1.69 -12.76,0.26 -21.67,13.56 10.08,4.84 10.92,-0.72 18.96,8.13 -10.02,0.84 -23.67,4.16 -29.79,12.95 -7.2,-0.65 -0.64,-1.74 -9,2.78 -35.25,19.08 -2.39,34.08 9.27,40.86 10.88,6.33 10.24,8.02 21.4,28.27 -10.86,-1.19 -17.65,2.32 -27.08,4.52 7.79,10.79 8.85,-2.18 32.5,-2.71l-37.92 16.25 13.54 17.75c-11.94,-0.38 -23.99,8.55 -27.09,20.17 5.34,7.29 4.82,4.29 13.54,10.83 -14.76,0 -14,-0.71 -18.96,4.36 -8.45,-1.85 -9.26,-0.57 -16.25,1.06 4.08,6.09 2.73,4.8 9.54,9.57 8.89,6.23 6.44,6.02 14.84,3.98 3.29,7.87 -3.96,3.54 21.43,8.36 7.23,1.37 13.78,2.67 23.44,3.59 6.88,0.66 12.37,-0.69 21.23,-2.73 3.9,-0.9 7.27,-1.5 10.93,-2.44 13.88,-3.55 6.49,2.05 12.35,-6.79 11.28,4.2 26.54,-2.81 38.14,-5.21 13.7,-2.83 25.3,-5.75 37.7,-9.41 20.99,-5.54 39.9,-12.07 57.2,-17.58 19.82,-6.32 37.58,-11.5 56.56,-17.78 5.31,-1.68 8.25,-2.47 11.66,-3.74 11.82,-4.37 7.03,-2.63 7.65,-5.53 0.03,-0.11 -0.7,-3.54 -0.71,-4.24l0.48 -4.39c2.14,-3.61 5.33,-4.14 10.34,-5.53 18.2,-5.06 36.8,0.7 49.13,-12.38l0 -6.32c36.92,-3.07 68.55,-15.64 75.84,-16.25 0.21,9.52 1.7,15.48 5.42,22.57 0.23,8.92 5.4,28.32 8.12,35.81 0.24,8.38 1.44,9.31 3.2,16.95 0.56,2.43 1.25,6.57 1.99,9.33 1.9,7.05 -0.13,3.41 2.94,7.97 0,15.64 5.12,23.24 5.42,37.92 1.96,7.6 2.46,17.66 5.42,23.83l0 10.84c1.69,7.07 1.27,4.69 2.7,12.63 0,20.04 5.42,42.03 5.42,60.95l0 34.76c0,16.96 -0.2,23.05 -2.71,36.75 0,17.49 -2.71,21.94 -2.71,39.08 -3.8,3.39 -2.93,7.24 -4.31,14.44 -1.64,8.5 -2.45,12.16 -3.82,19.3 -2.86,9.6 -5.56,20.14 -9.22,30.58 -1.39,3.97 -6.01,15 -6.25,15.55 -3.25,7.47 -3.77,9.69 -6.19,17.45 -5.72,3.02 -0.13,-3.12 -2.71,2.92 -4.24,8.41 -5.21,10.38 -8.13,17.97 -0.44,0.27 -1.03,0.36 -1.16,1.01l-47.59 65.16 -29.77 27.32c-2.78,1.97 -7.58,4.78 -11.35,7.17 -25.81,16.31 -34.99,16.45 -47.49,23.11l-3.47 2.21 -57.59 10.12c-17.86,2.09 -47.86,0.3 -67.01,0.3l-53.06 -11.54c-27,-7.9 -42.93,-21.47 -63.96,-28.5 -6.66,-2.23 0.57,-2.42 -7.58,-0.6 -4.13,-9.4 -24.73,-26.39 -35.21,-36.19 -3.32,-7 -0.66,-1.57 -4.33,-8.06l-11.45 -23.6c-3.75,-11.45 -3.18,-25.57 -3.18,-40.5l0 -8.11 2.7 -0.55c0,-18.71 16.61,-52.49 24.38,-63.23 29.12,-44.49 -1.68,-41.42 -18.96,0 -10.54,14.58 -21.32,45.1 -24.38,63.23l0 8.66c-5.51,-0.88 -0.88,-3.54 -3.53,15.57 -1.01,7.33 -1.89,10.7 -1.89,22.35 -7.77,-8.7 -6.05,-7.56 -16.25,-5.4 0.28,12.29 7.22,29.35 10.83,39.64 0.47,0.58 9.37,15.11 9.49,15.99 1.42,9.79 -9.08,6.67 -20.33,6.67l0 13.53c3.57,8.03 8.6,15.92 16.25,23.3 3.75,10.3 10.93,13.09 18.96,17.34l5.42 7.03c7.74,7.08 19.81,13.98 27.09,21.67l5.42 6.51zm755.69 -682.56l0 18.96c-0.52,-0.74 -2.39,-1.36 -2.68,-8.17 -0.13,-3.25 -0.13,-1.83 0.32,-4.55 1.04,-6.38 0.23,-2.89 2.36,-6.24zm-376.49 -262.73l2.71 3.01c-3.22,3.79 -1.64,3.61 -2.71,-3.01zm254.61 181.49l0 15.62c0,16.16 1.42,30.97 -2.71,43.26l0 12.11 0 8.69c-0.18,6.86 -2.24,24.22 -3.47,33.71 -1.01,7.83 -3.99,24.7 -4.65,33.74 0,8.45 -3.17,29.65 -5.42,35.81 0,9.55 -2.84,29 -5.42,35.36l-2.7 15.96c0,12.47 -0.55,11.04 -2.71,20.31 -0.27,12.25 -2.71,10.76 -2.71,24.38 -2.45,4.95 -2.07,3.39 -2.7,10.84 -1.69,7.07 -1.28,4.69 -2.71,12.63 -0.64,21.33 -8.13,31.43 -8.13,55.09l-2.71 0c0,-12.72 -0.82,-18.87 -1.96,-27.37 -1.55,-11.55 1.2,-24.64 -3.46,-27.72l0 -12.63 0 -10.84c-4.98,-10.38 -0.2,-14.21 -5.42,-23.83 0,-16.96 -4.17,-24.21 -5.42,-37.92 -0.8,-8.98 -4.09,-28.52 -8.13,-34.25 -0.18,-9.87 -4.6,-29.87 -8.13,-35.81 -0.82,-11.17 -6.46,-25.98 -9.66,-36.81 -2.83,-9.61 -4.71,-24.23 -12.01,-35.11l-3.13 -15.57c16.48,-4.06 -5,-2.95 14.94,-12.71 3.04,-1.48 17.81,-5.94 20.7,-6.36 7.02,-7.85 26.61,-20.49 35.21,-24.38 6.45,-7.22 25.1,-19.41 32.5,-24.36l0 8.14zm-601.3 170.61c-11.34,-4.47 -2.85,-3.9 -13.54,0 6.14,-7.78 -3.98,-3.94 5.79,-4.28 9.53,-0.33 2.44,-2.44 7.75,4.28z"/>
  <path class="fil1" d="M0 1682.48l64.85 0c0,11 2.09,21.33 6.26,31 4.17,9.67 9.95,18.11 17.16,25.32 7.21,7.21 15.83,12.89 25.69,17.07 9.86,4.17 20.38,6.25 31.38,6.25 11,0 21.43,-2.09 31.09,-6.25 9.77,-4.17 18.2,-9.86 25.41,-17.07 7.21,-7.3 12.99,-15.74 17.16,-25.41 4.17,-9.67 6.26,-20 6.26,-31l0 -264.42 64.85 0 0 263.94c0,20.1 -3.79,38.97 -11.38,56.6 -7.59,17.63 -17.82,32.99 -30.91,46.07 -13.08,13.08 -28.44,23.42 -45.98,31 -17.63,7.58 -36.41,11.37 -56.5,11.37 -20.1,0 -38.87,-3.79 -56.51,-11.28 -17.54,-7.49 -32.99,-17.73 -46.26,-30.72 -13.27,-12.99 -23.61,-28.25 -31.19,-45.89 -7.59,-17.63 -11.38,-36.5 -11.38,-56.6zm569.42 -83.62l0 217.3 -20.48 0 -26.74 -18.77c-11,9.48 -23.23,16.78 -36.69,21.9 -13.46,5.12 -27.78,7.68 -42.95,7.68 -17.07,0 -33.09,-3.32 -48.07,-9.95 -14.98,-6.64 -28.06,-15.64 -39.25,-27.02 -11.19,-11.38 -20,-24.65 -26.45,-39.82 -6.45,-15.17 -9.67,-31.47 -9.67,-48.92 0,-17.45 3.22,-33.85 9.67,-49.21 6.45,-15.36 15.26,-28.73 26.45,-40.1 11.19,-11.37 24.27,-20.38 39.25,-27.02 14.98,-6.63 31,-9.95 48.07,-9.95 13.27,0 26.07,2.09 38.4,6.26 12.33,4.17 23.61,10.05 33.85,17.64l54.61 0zm-126.86 170.08c9.1,0 17.54,-1.8 25.32,-5.4 7.77,-3.6 14.69,-8.44 20.76,-14.69 6.07,-6.26 10.81,-13.46 14.22,-21.52 3.41,-8.15 5.12,-16.88 5.12,-26.36 0,-9.48 -1.71,-18.2 -5.12,-26.36 -3.41,-8.06 -8.16,-15.26 -14.22,-21.52 -6.07,-6.26 -12.99,-11.09 -20.76,-14.7 -7.78,-3.6 -16.21,-5.4 -25.32,-5.4 -9.1,0 -17.54,1.8 -25.31,5.4 -7.77,3.6 -14.69,8.44 -20.76,14.7 -6.07,6.26 -10.81,13.46 -14.22,21.52 -3.41,8.15 -5.12,16.88 -5.12,26.36 0,9.48 1.71,18.2 5.12,26.36 3.41,8.06 8.15,15.26 14.22,21.52 6.07,6.26 12.99,11.09 20.76,14.69 7.77,3.6 16.21,5.4 25.31,5.4zm280.44 -204.79l29.58 0 0 58.02 -29.58 0c-9.1,0 -17.73,1.8 -25.88,5.41 -8.15,3.6 -15.26,8.63 -21.33,15.07 -6.07,6.45 -10.9,13.84 -14.51,22.19 -3.6,8.34 -5.41,17.45 -5.41,27.3l0 0 0 124.01 -58.02 0 0 -241.19 74.52 0c16.31,-7.21 33.18,-10.81 50.63,-10.81zm147.9 -146.19l58.02 0 0 58.02 -58.02 0 0 -58.02zm58.02 157l0 241.19 -58.02 0 0 -183.17 -89.88 0 0 -58.02 147.9 0zm153.59 -10.81c17.07,0 33.18,3.32 48.35,9.96 15.17,6.63 28.44,15.83 39.82,27.59 11.38,11.76 20.38,25.32 27.02,40.67 6.64,15.36 9.96,31.95 9.96,49.77l0 124.01 -58.02 0 0 -124.01c0,-9.86 -1.8,-18.96 -5.41,-27.3 -3.6,-8.34 -8.44,-15.74 -14.51,-22.19 -6.07,-6.45 -13.18,-11.47 -21.33,-15.07 -8.15,-3.6 -16.78,-5.41 -25.88,-5.41 -9.1,0 -17.73,1.8 -25.88,5.41 -8.15,3.6 -15.26,8.63 -21.33,15.07 -6.07,6.45 -10.9,13.84 -14.51,22.19 -3.6,8.34 -5.41,17.45 -5.41,27.3l0 124.01 -58.02 0 0 -241.19 74.52 0c16.31,-7.21 33.18,-10.81 50.63,-10.81zm497.17 10.81l0 58.02 -93.29 0c6.45,9.86 11.37,20.57 14.79,31.95 3.41,11.37 5.12,23.42 5.12,35.93 0,17.16 -3.22,33.37 -9.77,48.82 -6.45,15.36 -15.36,28.73 -26.55,40.19 -11.28,11.38 -24.46,20.38 -39.54,27.12 -15.07,6.64 -31.19,10.15 -48.35,10.52l0 0c-14.51,0 -26.93,5.12 -37.26,15.36 -10.33,10.24 -15.45,22.56 -15.45,36.97 0,14.41 5.12,26.83 15.36,37.26 10.33,10.43 22.66,15.64 37.16,15.64l0 0 0.57 0c20.48,0 39.82,2.94 57.83,8.82 18.11,5.88 33.75,13.84 47.12,23.89 13.27,10.05 23.7,21.9 31.38,35.55 7.58,13.65 11.37,28.44 11.37,44.37 0,15.93 -3.79,30.72 -11.37,44.37 -7.59,13.65 -17.92,25.5 -31.19,35.55 -13.27,10.05 -28.91,18.02 -46.83,23.89 -18.02,5.88 -37.16,8.82 -57.64,8.82 -20.48,0 -39.63,-2.94 -57.64,-8.82 -17.92,-5.88 -33.56,-13.84 -46.84,-23.89 -13.27,-10.05 -23.61,-21.9 -31.19,-35.55 -7.59,-13.65 -11.38,-28.44 -11.38,-44.37 0,-19.72 5.5,-37.64 16.5,-53.76 11,-16.12 26.17,-29.11 45.51,-38.97 -8.34,-9.86 -14.89,-20.95 -19.63,-33.28 -4.74,-12.33 -7.11,-25.5 -7.11,-39.54 0,-15.17 2.84,-29.39 8.53,-42.66 5.69,-13.27 13.46,-24.84 23.32,-34.7 -15.17,-11.76 -27.21,-26.36 -36.12,-43.8 -8.91,-17.45 -13.37,-36.59 -13.37,-57.45 0,-17.45 3.32,-33.85 9.96,-49.21 6.63,-15.36 15.64,-28.73 27.02,-40.1 11.38,-11.37 24.74,-20.38 40.1,-27.02 15.36,-6.63 31.76,-9.95 49.2,-9.95l199.67 0zm-107.51 470.72c0,-7.21 -2.37,-14.22 -7.11,-20.86 -4.74,-6.73 -11.28,-12.51 -19.44,-17.45 -8.15,-4.93 -17.63,-9.01 -28.54,-12.04 -10.81,-3.03 -22.19,-4.55 -33.94,-4.55 -11.76,0 -23.14,1.52 -33.94,4.55 -10.81,3.03 -20.38,7.11 -28.54,12.04 -8.15,4.93 -14.69,10.71 -19.43,17.45 -4.74,6.64 -7.11,13.65 -7.11,20.86 0,7.21 2.37,14.22 7.11,20.86 4.74,6.73 11.28,12.51 19.43,17.45 8.15,4.93 17.73,8.91 28.54,11.75 10.81,2.85 22.19,4.27 33.94,4.27 11.75,0 23.13,-1.42 33.94,-4.27 10.9,-2.84 20.38,-6.83 28.54,-11.75 8.15,-4.93 14.69,-10.71 19.44,-17.45 4.74,-6.64 7.11,-13.65 7.11,-20.86zm-92.15 -276.18c9.48,0 18.3,-1.8 26.45,-5.41 8.15,-3.6 15.36,-8.62 21.62,-14.88 6.26,-6.26 11.19,-13.46 14.79,-21.71 3.6,-8.15 5.4,-17.07 5.4,-26.55 0,-9.48 -1.8,-18.39 -5.4,-26.55 -3.6,-8.25 -8.53,-15.36 -14.79,-21.43 -6.26,-6.07 -13.46,-11 -21.62,-14.6 -8.15,-3.6 -16.97,-5.4 -26.45,-5.4 -9.48,0 -18.3,1.8 -26.45,5.4 -8.15,3.6 -15.36,8.53 -21.61,14.6 -6.26,6.07 -11.19,13.18 -14.79,21.43 -3.6,8.15 -5.41,17.07 -5.41,26.55 0,9.48 1.8,18.39 5.41,26.55 3.6,8.25 8.53,15.45 14.79,21.71 6.26,6.26 13.46,11.28 21.61,14.88 8.15,3.6 16.97,5.41 26.45,5.41zm478.4 -170.65l0 217.3 -20.48 0 -26.74 -18.77c-11,9.48 -23.23,16.78 -36.69,21.9 -13.46,5.12 -27.78,7.68 -42.95,7.68 -17.07,0 -33.09,-3.32 -48.07,-9.95 -14.98,-6.64 -28.06,-15.64 -39.25,-27.02 -11.19,-11.38 -20,-24.65 -26.45,-39.82 -6.45,-15.17 -9.67,-31.47 -9.67,-48.92 0,-17.45 3.22,-33.85 9.67,-49.21 6.45,-15.36 15.26,-28.73 26.45,-40.1 11.19,-11.37 24.27,-20.38 39.25,-27.02 14.98,-6.63 31,-9.95 48.07,-9.95 13.27,0 26.07,2.09 38.4,6.26 12.33,4.17 23.61,10.05 33.85,17.64l54.61 0zm-126.86 170.08c9.1,0 17.54,-1.8 25.32,-5.4 7.77,-3.6 14.69,-8.44 20.76,-14.69 6.07,-6.26 10.81,-13.46 14.22,-21.52 3.41,-8.15 5.12,-16.88 5.12,-26.36 0,-9.48 -1.71,-18.2 -5.12,-26.36 -3.41,-8.06 -8.16,-15.26 -14.22,-21.52 -6.07,-6.26 -12.99,-11.09 -20.76,-14.7 -7.78,-3.6 -16.21,-5.4 -25.32,-5.4 -9.1,0 -17.54,1.8 -25.31,5.4 -7.77,3.6 -14.69,8.44 -20.76,14.7 -6.07,6.26 -10.81,13.46 -14.22,21.52 -3.41,8.15 -5.12,16.88 -5.12,26.36 0,9.48 1.71,18.2 5.12,26.36 3.41,8.06 8.15,15.26 14.22,21.52 6.07,6.26 12.99,11.09 20.76,14.69 7.77,3.6 16.21,5.4 25.31,5.4zm280.44 -204.79c17.07,0 33.18,3.32 48.35,9.96 15.17,6.63 28.44,15.83 39.82,27.59 11.38,11.76 20.38,25.32 27.02,40.67 6.64,15.36 9.96,31.95 9.96,49.77l0 124.01 -58.02 0 0 -124.01c0,-9.86 -1.8,-18.96 -5.41,-27.3 -3.6,-8.34 -8.44,-15.74 -14.51,-22.19 -6.07,-6.45 -13.18,-11.47 -21.33,-15.07 -8.15,-3.6 -16.78,-5.41 -25.88,-5.41 -9.1,0 -17.73,1.8 -25.88,5.41 -8.15,3.6 -15.26,8.63 -21.33,15.07 -6.07,6.45 -10.9,13.84 -14.51,22.19 -3.6,8.34 -5.41,17.45 -5.41,27.3l0 124.01 -58.02 0 0 -241.19 74.52 0c16.31,-7.21 33.18,-10.81 50.63,-10.81zm-2012.01 263.38l64.85 0 0 178.05 150.18 -178.05 86.46 0 -170.65 201.37 170.65 196.82 -85.9 0 -150.74 -173.5 0 173.5 -64.85 0 0 -398.19zm551.78 180.89l0 217.3 -20.48 0 -26.74 -18.77c-11,9.48 -23.23,16.78 -36.69,21.9 -13.46,5.12 -27.78,7.68 -42.95,7.68 -17.07,0 -33.09,-3.32 -48.07,-9.95 -14.98,-6.64 -28.06,-15.64 -39.25,-27.02 -11.19,-11.38 -20,-24.65 -26.45,-39.82 -6.45,-15.17 -9.67,-31.47 -9.67,-48.92 0,-17.45 3.22,-33.85 9.67,-49.21 6.45,-15.36 15.26,-28.73 26.45,-40.1 11.19,-11.37 24.27,-20.38 39.25,-27.02 14.98,-6.63 31,-9.95 48.07,-9.95 13.27,0 26.07,2.09 38.4,6.26 12.33,4.17 23.61,10.05 33.85,17.64l54.61 0zm-126.86 170.08c9.1,0 17.54,-1.8 25.32,-5.4 7.77,-3.6 14.69,-8.44 20.76,-14.7 6.07,-6.26 10.81,-13.46 14.22,-21.52 3.41,-8.15 5.12,-16.88 5.12,-26.36 0,-9.48 -1.71,-18.2 -5.12,-26.36 -3.41,-8.06 -8.16,-15.26 -14.22,-21.52 -6.07,-6.26 -12.99,-11.09 -20.76,-14.7 -7.78,-3.6 -16.21,-5.4 -25.32,-5.4 -9.1,0 -17.54,1.8 -25.31,5.4 -7.77,3.6 -14.69,8.44 -20.76,14.7 -6.07,6.26 -10.81,13.46 -14.22,21.52 -3.41,8.15 -5.12,16.88 -5.12,26.36 0,9.48 1.71,18.2 5.12,26.36 3.41,8.06 8.15,15.26 14.22,21.52 6.07,6.26 12.99,11.09 20.76,14.7 7.77,3.6 16.21,5.4 25.31,5.4zm278.74 -193.98c23.89,0 45.51,6.45 64.85,19.34l0 -176.34 58.02 0 0 398.19 -22.09 0 -23.32 -17.63c-10.62,8.72 -22.47,15.64 -35.74,20.76 -13.27,5.12 -27.21,7.68 -42,7.68 -17.07,0 -33,-3.32 -47.97,-9.95 -14.89,-6.64 -27.97,-15.64 -39.16,-27.02 -11.19,-11.38 -19.91,-24.65 -26.35,-39.82 -6.45,-15.17 -9.67,-31.47 -9.67,-48.92 0,-17.45 3.22,-33.85 9.67,-49.21 6.45,-15.36 15.26,-28.73 26.45,-40.1 11.19,-11.37 24.27,-20.38 39.25,-27.02 14.98,-6.63 31,-9.95 48.07,-9.95zm0 193.98c8.34,0 16.31,-1.61 23.89,-4.83 7.59,-3.22 14.22,-7.49 19.91,-12.99 5.69,-5.5 10.43,-12.04 14.22,-19.53 3.79,-7.59 6.07,-15.55 6.83,-23.8l0 -13.65c-0.76,-8.63 -3.03,-16.69 -6.83,-24.08 -3.79,-7.3 -8.53,-13.75 -14.22,-19.25 -5.69,-5.5 -12.33,-9.77 -19.91,-12.99 -7.59,-3.22 -15.55,-4.83 -23.89,-4.83 -9.1,0 -17.54,1.8 -25.31,5.4 -7.77,3.6 -14.69,8.44 -20.76,14.7 -6.07,6.26 -10.81,13.46 -14.22,21.52 -3.41,8.15 -5.12,16.88 -5.12,26.36 0,9.48 1.71,18.2 5.12,26.36 3.41,8.06 8.15,15.26 14.22,21.52 6.07,6.26 12.99,11.09 20.76,14.7 7.77,3.6 16.21,5.4 25.31,5.4zm379.42 -52.9l-169.52 0c0.38,14.6 5.97,27.12 16.78,37.45 10.81,10.33 23.99,15.45 39.54,15.45 14.03,0 26.55,-4.55 37.54,-13.65 5.69,-4.55 10.24,-10.05 13.65,-16.49l51.2 26.73c-6.83,13.37 -16.12,25.03 -27.87,34.98 -21.62,17.64 -46.46,26.45 -74.52,26.45 -15.93,0 -30.81,-2.94 -44.66,-8.81 -13.84,-5.88 -25.88,-13.84 -36.12,-23.89 -10.24,-10.05 -18.39,-21.9 -24.46,-35.56 -6.07,-13.65 -9.1,-28.25 -9.1,-43.8l0 -30.15c0.38,-15.17 3.6,-29.39 9.67,-42.66 6.07,-13.27 14.22,-24.93 24.46,-34.98 10.24,-10.05 22.28,-17.92 36.12,-23.61 13.84,-5.69 28.53,-8.53 44.08,-8.53 13.27,0 26.07,2.18 38.4,6.54 12.33,4.36 23.51,10.43 33.56,18.2 10.05,7.77 18.58,17.07 25.6,27.87 7.01,10.81 12.04,22.47 15.07,34.98l0.57 3.41 0 50.06zm-64.85 -58.02c-5.31,-7.58 -12.23,-13.65 -20.76,-18.2 -8.53,-4.55 -17.73,-6.83 -27.59,-6.83 -9.86,0 -18.96,2.27 -27.3,6.83 -8.34,4.55 -15.17,10.62 -20.48,18.2l96.13 0zm218.44 -93.86l29.58 0 0 58.02 -29.58 0c-9.1,0 -17.73,1.8 -25.88,5.41 -8.15,3.6 -15.26,8.63 -21.33,15.07 -6.07,6.45 -10.9,13.84 -14.51,22.19 -3.6,8.34 -5.41,17.45 -5.41,27.3l0 0 0 124.01 -58.02 0 0 -241.19 74.52 0c16.31,-7.21 33.18,-10.81 50.63,-10.81z"/>
 </g>
</svg>
